<mxfile host="app.diagrams.net" modified="2023-10-13T06:02:53.789Z" agent="Mozilla/5.0 (Macintosh; Intel Mac OS X 10_15_7) AppleWebKit/537.36 (KHTML, like Gecko) Chrome/117.0.0.0 Safari/537.36 Edg/117.0.2045.55" etag="dRHKRL7a7t9ZfEehZeZt" version="21.8.2" type="device">
  <diagram name="第 1 页" id="FXz_DnYty5wKGfvcONaA">
    <mxGraphModel dx="2074" dy="1188" grid="1" gridSize="10" guides="1" tooltips="1" connect="1" arrows="1" fold="1" page="1" pageScale="1" pageWidth="827" pageHeight="1169" math="0" shadow="0">
      <root>
        <mxCell id="0" />
        <mxCell id="1" parent="0" />
        <mxCell id="530fafdDnZ_cuYEjKR1N-1" value="JoinNode" style="ellipse;whiteSpace=wrap;html=1;" vertex="1" parent="1">
          <mxGeometry x="400" y="410" width="100" height="70" as="geometry" />
        </mxCell>
        <mxCell id="530fafdDnZ_cuYEjKR1N-5" style="edgeStyle=orthogonalEdgeStyle;rounded=0;orthogonalLoop=1;jettySize=auto;html=1;exitX=0.5;exitY=0;exitDx=0;exitDy=0;entryX=0.5;entryY=1;entryDx=0;entryDy=0;" edge="1" parent="1" source="530fafdDnZ_cuYEjKR1N-3" target="530fafdDnZ_cuYEjKR1N-1">
          <mxGeometry relative="1" as="geometry" />
        </mxCell>
        <mxCell id="530fafdDnZ_cuYEjKR1N-3" value="OlapScanNode&lt;br&gt;t2" style="ellipse;whiteSpace=wrap;html=1;" vertex="1" parent="1">
          <mxGeometry x="270" y="540" width="100" height="70" as="geometry" />
        </mxCell>
        <mxCell id="530fafdDnZ_cuYEjKR1N-6" style="edgeStyle=orthogonalEdgeStyle;rounded=0;orthogonalLoop=1;jettySize=auto;html=1;exitX=0.5;exitY=0;exitDx=0;exitDy=0;entryX=0.5;entryY=1;entryDx=0;entryDy=0;" edge="1" parent="1" source="530fafdDnZ_cuYEjKR1N-4" target="530fafdDnZ_cuYEjKR1N-1">
          <mxGeometry relative="1" as="geometry" />
        </mxCell>
        <mxCell id="530fafdDnZ_cuYEjKR1N-4" value="OlapScanNode&lt;br&gt;t1" style="ellipse;whiteSpace=wrap;html=1;" vertex="1" parent="1">
          <mxGeometry x="540" y="550" width="100" height="70" as="geometry" />
        </mxCell>
      </root>
    </mxGraphModel>
  </diagram>
</mxfile>
